<?xml version="1.0" encoding="UTF-8"?>
<svg id="Layer_1" xmlns="http://www.w3.org/2000/svg" xmlns:xlink="http://www.w3.org/1999/xlink" viewBox="0 0 434 254">
  <defs>
    <style>
      .cls-1 {
        fill: none;
      }

      .cls-2 {
        font-family: Tahoma, Tahoma;
        font-size: 22.15px;
      }

      .cls-3 {
        clip-path: url(#clippath);
      }
    </style>
    <clipPath id="clippath">
      <rect class="cls-1" width="434" height="254"/>
    </clipPath>
  </defs>
  <g class="cls-3">
    <path d="M247.88,136.59c0,2.98-.6,5.61-1.8,7.89-1.2,2.28-2.81,4.16-4.83,5.63-2.4,1.77-4.96,3.03-7.7,3.76-2.74.74-6.28,1.11-10.61,1.11h-18.27v-59.88h16.9c4.53,0,7.93.14,10.2.42,2.27.28,4.44.94,6.52,1.99,2.28,1.15,3.95,2.66,5,4.52,1.05,1.86,1.58,4.05,1.58,6.57,0,2.81-.79,5.33-2.37,7.55-1.58,2.22-3.77,3.96-6.57,5.22v.32c3.8.96,6.74,2.73,8.82,5.29,2.09,2.56,3.13,5.76,3.13,9.6M236.05,109.72c0-1.45-.26-2.7-.77-3.76-.51-1.06-1.34-1.9-2.48-2.51-1.37-.72-2.9-1.17-4.58-1.33-1.68-.16-4.01-.24-6.97-.24h-8.13v17.53h9.63c2.65,0,4.61-.13,5.86-.38,1.25-.26,2.55-.78,3.89-1.59,1.28-.78,2.2-1.8,2.74-3.06.54-1.26.81-2.81.81-4.66M239.06,136.92c0-2.26-.34-4.12-1.03-5.58-.68-1.46-2.07-2.71-4.15-3.73-1.34-.67-2.8-1.1-4.39-1.29s-3.83-.28-6.74-.28h-9.63v22.17h6.89c3.71,0,6.63-.16,8.77-.48,2.14-.32,4.02-1.01,5.65-2.05,1.6-1.05,2.77-2.24,3.51-3.57.74-1.33,1.11-3.06,1.11-5.18"/>
    <polygon points="256.31 154.98 256.31 95.1 296.21 95.1 296.21 102.19 264.77 102.19 264.77 118.6 294.07 118.6 294.07 125.68 264.77 125.68 264.77 147.9 296.21 147.9 296.21 154.98 256.31 154.98"/>
    <path d="M323.23,156.05c-4.62,0-8.54-.45-11.78-1.34-3.24-.9-6.28-2-9.13-3.32v-9.97h.6c2.79,2.46,5.96,4.37,9.49,5.72,3.53,1.35,6.94,2.03,10.22,2.03,4.67,0,8.21-.92,10.6-2.75,2.39-1.83,3.59-4.25,3.59-7.25,0-2.39-.63-4.33-1.88-5.83-1.25-1.5-3.25-2.61-5.98-3.34-1.97-.54-3.76-.98-5.39-1.33-1.63-.35-3.66-.82-6.12-1.41-2.2-.54-4.16-1.22-5.9-2.05-1.74-.83-3.28-1.92-4.62-3.26-1.31-1.31-2.33-2.86-3.06-4.64-.73-1.78-1.09-3.84-1.09-6.17,0-4.85,2.01-8.92,6.03-12.2,4.02-3.28,9.15-4.92,15.39-4.92,3.57,0,6.93.33,10.11,1.01,3.18.67,6.12,1.62,8.83,2.86v9.54h-.64c-2.02-1.75-4.62-3.27-7.78-4.57-3.16-1.3-6.48-1.95-9.96-1.95-3.93,0-7.11.86-9.53,2.59-2.42,1.73-3.63,4-3.63,6.81,0,2.54.71,4.57,2.14,6.07,1.42,1.5,3.49,2.6,6.2,3.29,1.8.46,3.99.97,6.59,1.55,2.6.58,4.75,1.11,6.46,1.59,4.39,1.26,7.6,3.16,9.62,5.71,2.02,2.55,3.04,5.68,3.04,9.41,0,2.33-.51,4.64-1.52,6.91-1.01,2.28-2.43,4.21-4.25,5.79-2.05,1.74-4.37,3.08-6.95,4.02-2.58.94-5.81,1.41-9.69,1.41"/>
    <polygon points="369.19 154.98 369.19 102.19 347.78 102.19 347.78 95.1 399.05 95.1 399.05 102.19 377.64 102.19 377.64 154.98 369.19 154.98"/>
    <text class="cls-2" transform="translate(317.54 178.8)"><tspan x="0" y="0">ANKARA</tspan></text>
    <path d="M172.87,155.06l-14.03-8.09h-36.65l-14.03,8.09c13.43,23.33,53.57,61.52,97.06,64.83-15.16-8.49-39.28-38.99-32.35-64.83"/>
    <path d="M142.82,111.23h0l-.27-.48.27.48ZM182.78,34.6c.23,17.38-14.12,53.51-39.96,60.43v16.2s18.33,31.74,18.33,31.74l14.02,8.11c13.49-23.29,26.5-77.15,7.61-116.48"/>
    <path d="M119.88,142.97h0l-.27.48.27-.48ZM138.21,95.04c-26.91-.04-80.07,15.63-104.67,51.65,14.93-8.88,53.4-14.53,72.32,4.4l14.02-8.11,18.32-31.73v-16.2Z"/>
    <path d="M131.92,133.72c0-4.74,3.84-8.59,8.59-8.59s8.59,3.84,8.59,8.59-3.84,8.59-8.59,8.59-8.59-3.83-8.59-8.59"/>
  </g>
</svg>